<?xml version="1.0" encoding="UTF-8" standalone="no"?><!DOCTYPE svg PUBLIC "-//W3C//DTD SVG 1.1//EN" "http://www.w3.org/Graphics/SVG/1.1/DTD/svg11.dtd"><svg width="100%" height="100%" viewBox="0 0 100 100" version="1.1" xmlns="http://www.w3.org/2000/svg" xmlns:xlink="http://www.w3.org/1999/xlink" xml:space="preserve" xmlns:serif="http://www.serif.com/" style="fill-rule:evenodd;clip-rule:evenodd;stroke-linecap:round;stroke-linejoin:round;"><g id="g3764"><path id="path3610" d="M49.915,4.636l-16.986,12.35l6.488,19.975l21.005,0l6.488,-19.975l-16.995,-12.35Zm-30.92,22.337l-16.995,12.341l6.488,19.975l21.004,0l6.498,-19.975l-16.995,-12.341Zm62.01,0l-16.995,12.341l6.489,19.975l21.004,0l6.497,-19.975l-16.995,-12.341Zm-49.893,36.066l-16.995,12.341l6.489,19.984l21.004,0l6.488,-19.984l-16.986,-12.341Zm37.811,0l-16.994,12.341l6.488,19.984l21.004,0l6.497,-19.984l-16.995,-12.341Z" style="fill:url(#_Radial1);fill-rule:nonzero;stroke:#000;stroke-width:1.15px;"/><path id="path4117" d="M48.146,46.476c0,2.429 -1.969,4.399 -4.398,4.399c-2.429,0 -4.398,-1.97 -4.398,-4.399c0,-2.429 1.969,-4.398 4.398,-4.398c2.429,0 4.398,1.969 4.398,4.398Z" style="fill:none;stroke:#000;stroke-width:2.07px;"/><path id="use4119" d="M60.968,61.277c0,2.429 -1.97,4.399 -4.399,4.399c-2.429,0 -4.398,-1.97 -4.398,-4.399c0,-2.429 1.969,-4.398 4.398,-4.398c2.429,0 4.399,1.969 4.399,4.398Z" style="fill:none;stroke:#000;stroke-width:2.07px;"/><path id="path4121" d="M41.589,64.327l17.354,-21.162" style="fill:none;stroke:#000;stroke-width:2.07px;"/></g><defs><radialGradient id="_Radial1" cx="0" cy="0" r="1" gradientUnits="userSpaceOnUse" gradientTransform="matrix(50,2.22045e-14,-2.37588e-14,53.5,50,53.5)"><stop offset="0" style="stop-color:#000;stop-opacity:0"/><stop offset="1" style="stop-color:#000;stop-opacity:1"/></radialGradient></defs></svg>